PathFileType	4	(X/Y/Z)	/Users/itak/Documents/Research/Walk-IL/dataset/trc/00421_00012.trc
DataRate	CameraRate	NumFrames	NumMarkers	Units	OrigDataRate	OrigDataStartFrame	OrigNumFrames
100.000000	100.000000	4	53	mm	100.000000	352	564
Frame#	Time	RPSI			LPSI			L3			STRN			T10			C7			CLAV			RBAK			LBAK			LSHO			LUPA			LAEL			LAOL			LWTS			LWPS			LFRA			LIFD			LHPS			LHTS			RSHO			RUPA			RAEL			RAOL			RWTS			RWPS			RFRA			RIFD			RHPS			RBHD			LFHD			RFHD			LBHD			LHIP			RHIP			RASI			LASI			LKNE			LTHI			LANK			LTIP			LTOE			LMT1			LMT5			LHEE			RKNE			RTHI			RANK			RTIP			RTOE			RMT1			RMT5			RHEE			RHTS			
		X1	Y1	Z1	X2	Y2	Z2	X3	Y3	Z3	X4	Y4	Z4	X5	Y5	Z5	X6	Y6	Z6	X7	Y7	Z7	X8	Y8	Z8	X9	Y9	Z9	X10	Y10	Z10	X11	Y11	Z11	X12	Y12	Z12	X13	Y13	Z13	X14	Y14	Z14	X15	Y15	Z15	X16	Y16	Z16	X17	Y17	Z17	X18	Y18	Z18	X19	Y19	Z19	X20	Y20	Z20	X21	Y21	Z21	X22	Y22	Z22	X23	Y23	Z23	X24	Y24	Z24	X25	Y25	Z25	X26	Y26	Z26	X27	Y27	Z27	X28	Y28	Z28	X29	Y29	Z29	X30	Y30	Z30	X31	Y31	Z31	X32	Y32	Z32	X33	Y33	Z33	X34	Y34	Z34	X35	Y35	Z35	X36	Y36	Z36	X37	Y37	Z37	X38	Y38	Z38	X39	Y39	Z39	X40	Y40	Z40	X41	Y41	Z41	X42	Y42	Z42	X43	Y43	Z43	X44	Y44	Z44	X45	Y45	Z45	X46	Y46	Z46	X47	Y47	Z47	X48	Y48	Z48	X49	Y49	Z49	X50	Y50	Z50	X51	Y51	Z51	X52	Y52	Z52	X53	Y53	Z53	

353	3.52	-140.9595031738281	945.93505859375	-115.9280624389648	-31.72006797790527	933.7777709960938	-190.6661224365234	-83.98986053466797	1026.1826171875	-149.2486419677734	20.30561828613281	1183.300415039062	46.05344390869141	-79.84883880615234	1123.3359375	-173.4635162353516	-65.99333190917969	1373.797119140625	-155.0668182373047	-9.702765464782715	1300.201416015625	-4.545631408691406	-136.8107604980469	1224.186767578125	-167.9629516601562	25.49208831787109	1341.255615234375	-207.1203918457031	102.4196472167969	1360.906372070312	-144.0415496826172	166.3163299560547	1247.308715820312	-187.9292144775391	218.8477172851562	1055.761596679688	-165.8874053955078	143.3516387939453	1024.11669921875	-193.9661102294922	246.2884979248047	869.090576171875	-28.15671348571777	287.3721008300781	847.3902587890625	-96.63232421875	248.5646362304688	959.384765625	-139.534912109375	274.2358093261719	695.796630859375	7.99578332901001	296.8323364257812	767.5114135742188	-62.20221328735352	284.193115234375	780.9110717773438	-0.5708429217338562	-190.1619262695312	1347.782470703125	-44.12121200561523	-246.8413238525391	1282.423583984375	-43.72221374511719	-280.2536315917969	1023.216003417969	-64.3741455078125	-190.7762908935547	1016.234619140625	-95.90753173828125	-244.0005340576172	794.0325927734375	34.52903747558594	-307.0024108886719	788.6803588867188	-3.32856297492981	-295.7059020996094	956.55615234375	-44.72603607177734	-242.2679748535156	622.7769775390625	-0.3973298370838165	-304.5347290039062	699.3473510742188	-14.72084712982178	-150.5448760986328	1544.44091796875	-110.7770767211914	16.30316925048828	1584.74267578125	-13.82248592376709	-101.1358108520508	1572.979370117188	11.82681274414062	-0.2263971418142319	1555.887329101562	-159.6089782714844	112.0581512451172	924.6714477539062	-181.3857574462891	-186.4424133300781	931.5381469726562	20.51584625244141	-65.59629058837891	943.1408081054688	95.88553619384766	144.4749755859375	927.938232421875	-61.33831024169922	170.5390777587891	442.0550537109375	-122.2519454956055	160.4069061279297	576.4339599609375	-127.7285079956055	-30.83926200866699	211.8212890625	-453.8155822753906	82.17145538330078	310.5580139160156	-296.1512145996094	-28.72939109802246	29.97208023071289	-337.8403625488281	-73.10997009277344	96.19913482666016	-350.09716796875	4.424422264099121	93.85795593261719	-422.0203552246094	-86.09839630126953	243.3893432617188	-433.6075134277344	-26.62766456604004	456.8121948242188	106.6862335205078	-104.8109130859375	711.4834594726562	111.2526702880859	35.36471557617188	47.82501602172852	28.9570198059082	10.14048671722412	332.5933532714844	106.3394165039062	163.3739013671875	35.26186752319336	168.8444366455078	162.1570129394531	40.36375427246094	86.93170928955078	63.19669723510742	41.73068237304688	106.8928146362305	55.00494384765625	37.57520294189453	-58.81099319458008	-252.4250946044922	685.2271728515625	32.64770126342773	
354	3.53	-136.1336059570312	947.3748168945312	-108.8113250732422	-26.1142463684082	934.391845703125	-182.4225463867188	-78.59056854248047	1027.369384765625	-141.0631103515625	24.91078948974609	1184.34521484375	54.62231063842773	-74.50002288818359	1124.55712890625	-165.1650848388672	-60.61870956420898	1375.101806640625	-146.6495056152344	-4.786967754364014	1301.200927734375	3.90609073638916	-132.0247802734375	1225.522827148438	-159.7073822021484	31.12301445007324	1342.517578125	-198.4726715087891	107.904296875	1361.7275390625	-135.0975341796875	171.3965301513672	1247.888061523438	-178.89111328125	222.8667907714844	1055.962524414062	-157.5970916748047	147.3094329833984	1024.939453125	-186.1378173828125	247.3434906005859	864.7594604492188	-24.37690353393555	288.4049987792969	844.7091674804688	-93.31513977050781	251.5125122070312	958.3534545898438	-133.0159759521484	272.1925048828125	689.839111328125	5.891860961914062	296.5005493164062	763.60009765625	-61.50335311889648	283.5945434570312	775.0696411132812	0.4823231995105743	-185.0813598632812	1349.2333984375	-35.81116485595703	-241.9897918701172	1283.588134765625	-35.01016998291016	-275.75439453125	1024.212768554688	-51.83255386352539	-186.7727203369141	1016.61328125	-84.70229339599609	-236.8552093505859	797.0484619140625	50.94135284423828	-300.4853820800781	790.649658203125	14.31864929199219	-290.1942443847656	957.4822998046875	-30.72073554992676	-236.0860748291016	624.9491577148438	21.72646713256836	-298.4330749511719	701.1185302734375	5.62543249130249	-145.6885070800781	1545.396362304688	-102.629768371582	20.73810386657715	1586.047607421875	-4.935654163360596	-96.71340942382812	1574.095825195312	20.30162239074707	4.827661991119385	1557.184692382812	-150.7629089355469	117.4952163696289	925.0319213867188	-171.4291381835938	-183.0371551513672	933.2608032226562	27.10076713562012	-62.97392654418945	944.3084716796875	103.8978652954102	148.3773956298828	928.8109130859375	-51.26451110839844	181.2866058349609	443.6376647949219	-101.3390808105469	169.7860717773438	577.5498046875	-110.0620269775391	-15.99789428710938	212.3650360107422	-434.8331298828125	95.46002960205078	311.8413696289062	-275.8622131347656	-6.436732292175293	31.35087203979492	-317.4884643554688	-53.87789916992188	95.84004211425781	-330.3668212890625	24.29036521911621	96.84137725830078	-401.6426696777344	-72.51021575927734	242.1019897460938	-415.3779907226562	-26.10808181762695	456.4215698242188	109.3655242919922	-102.8022308349609	711.8547973632812	117.0858001708984	35.17128753662109	47.7570915222168	28.95502281188965	10.31912136077881	332.1321411132812	108.1084442138672	163.3228607177734	35.23403549194336	168.8327789306641	162.0181274414062	40.40038681030273	86.94685363769531	63.02893447875977	41.5986328125	106.9919586181641	54.96134948730469	37.71490097045898	-58.83893203735352	-246.1515502929688	688.2286376953125	53.04685211181641	
355	3.54	-131.1690216064453	948.7711181640625	-102.0661697387695	-20.2689380645752	935.1331176757812	-174.3630676269531	-73.05281066894531	1028.5224609375	-133.3088989257812	29.26547050476074	1185.494750976562	63.12546539306641	-69.21717834472656	1125.878662109375	-157.1976776123047	-55.2838134765625	1376.460327148438	-138.3635864257812	-0.04026418551802635	1302.314697265625	12.24630355834961	-127.228645324707	1226.945678710938	-151.6603698730469	36.76472854614258	1343.894165039062	-189.9126739501953	113.3091201782227	1362.621704101562	-126.1977996826172	176.4077758789062	1248.576416015625	-169.9204559326172	226.6166381835938	1056.271728515625	-149.5626678466797	150.9622497558594	1025.911743164062	-178.4686737060547	248.2279663085938	860.75341796875	-20.93409156799316	289.2505187988281	842.3541870117188	-90.30560302734375	254.1893463134766	957.5076293945312	-126.8211441040039	270.4545593261719	684.5091552734375	3.463350296020508	296.1775512695312	760.1956787109375	-61.12055587768555	283.0252685546875	769.7493896484375	1.149564385414124	-180.1186981201172	1350.765991210938	-27.75324058532715	-237.2148742675781	1284.87744140625	-26.49078369140625	-271.4603271484375	1025.420654296875	-39.24277877807617	-183.0371551513672	1017.137756347656	-73.57925415039062	-229.7211608886719	800.4034423828125	67.37014007568359	-294.0773315429688	793.066650390625	32.29269027709961	-284.83251953125	958.6528930664062	-16.61525917053223	-230.0378112792969	627.6141357421875	43.94113922119141	-292.5379028320312	703.4281005859375	26.31198692321777	-140.8547058105469	1546.460327148438	-94.493408203125	25.17837333679199	1587.33935546875	3.939036130905151	-92.27938842773438	1575.247802734375	28.76610374450684	9.878411293029785	1558.572143554688	-141.9482879638672	123.0999145507812	925.6307373046875	-161.3132019042969	-179.8123321533203	934.8571166992188	33.04680252075195	-60.79142761230469	945.5623168945312	111.718994140625	152.3107604980469	930.0247802734375	-40.69362258911133	191.4785461425781	445.6732788085938	-80.36426544189453	178.8502197265625	579.0352783203125	-92.34949493408203	-1.008090376853943	211.7278137207031	-415.0069885253906	108.5013198852539	312.9115295410156	-255.1290283203125	16.54397010803223	32.6392707824707	-295.3691711425781	-34.10841751098633	94.78524780273438	-309.2057189941406	44.552978515625	99.11282348632812	-379.8399963378906	-58.82073211669922	239.5033721923828	-396.4875793457031	-25.6331901550293	456.1081237792969	111.7922439575195	-100.9000778198242	712.2583618164062	122.6563491821289	34.97243118286133	47.70004272460938	28.95297813415527	10.45549201965332	331.7699890136719	109.6606369018555	163.27490234375	35.21564483642578	168.7952880859375	161.8661804199219	40.44274139404297	86.94905090332031	62.85017013549805	41.46999740600586	107.0743637084961	54.91093826293945	37.85709381103516	-58.86154556274414	-240.3018493652344	691.7970581054688	73.56983184814453	
356	3.55	-126.0601501464844	950.0969848632812	-95.64904022216797	-14.19347953796387	935.9442138671875	-166.4673461914062	-67.40652465820312	1029.639038085938	-125.9881973266602	33.34608840942383	1186.741943359375	71.57908630371094	-63.97100448608398	1127.283935546875	-149.5184173583984	-49.98903274536133	1377.860229492188	-130.206298828125	4.52271842956543	1303.540283203125	20.4930591583252	-122.4033279418945	1228.429931640625	-143.8084411621094	42.40683746337891	1345.361083984375	-181.4252319335938	118.630012512207	1363.586059570312	-117.3224182128906	181.3482971191406	1249.375	-161.0155792236328	230.1167144775391	1056.688354492188	-141.791259765625	154.3401184082031	1027.032958984375	-170.9876098632812	248.9279327392578	857.1004028320312	-17.79877662658691	289.9499206542969	840.3428344726562	-87.55348968505859	256.6286926269531	956.8666381835938	-120.9334869384766	268.9913330078125	679.81591796875	0.8289836645126343	295.8726806640625	757.2996826171875	-60.96526718139648	282.4752197265625	764.9669799804688	1.517076253890991	-175.281005859375	1352.36669921875	-19.97137451171875	-232.5179290771484	1286.291381835938	-18.19650840759277	-267.3713684082031	1026.8271484375	-26.67530632019043	-179.5538635253906	1017.828857421875	-62.55898284912109	-222.6360778808594	804.131103515625	83.78807830810547	-287.8003234863281	795.9534301757812	50.51729583740234	-279.6737365722656	960.0965576171875	-2.486715316772461	-224.0086517333984	630.802001953125	66.19683837890625	-286.7526245117188	706.2843017578125	47.27157211303711	-136.0309600830078	1547.631469726562	-86.37774658203125	29.61508178710938	1588.6123046875	12.80523109436035	-87.83885192871094	1576.430419921875	37.20977401733398	14.93249320983887	1560.044555664062	-133.1644439697266	128.8273010253906	926.4674682617188	-151.0177154541016	-176.7519836425781	936.29541015625	38.42855453491211	-59.00949096679688	946.8770751953125	119.3621978759766	156.2021026611328	931.5172119140625	-29.73045349121094	201.0851593017578	448.151611328125	-59.37520599365234	187.5420989990234	580.8697509765625	-74.63569641113281	14.22474956512451	209.906494140625	-394.3577880859375	121.2950668334961	313.7414245605469	-234.0044555664062	39.74587631225586	33.80332565307617	-271.4870910644531	-14.06225872039795	93.18421173095703	-286.6452941894531	64.98323822021484	100.6259384155273	-356.6163940429688	-44.88172912597656	235.6697845458984	-377.0080261230469	-25.22294807434082	455.8661193847656	113.9691009521484	-99.12355804443359	712.65869140625	127.9224395751953	34.77912139892578	47.65488815307617	28.95211982727051	10.52933597564697	331.4979248046875	111.0065231323242	163.2356567382812	35.20697021484375	168.7357330322266	161.7034912109375	40.49039077758789	86.94169616699219	62.66660690307617	41.34809875488281	107.1379699707031	54.86209106445312	37.99931335449219	-58.87753295898438	-234.7868347167969	695.9500732421875	94.09738159179688	
